<?xml version="1.0" ?><!DOCTYPE svg  PUBLIC '-//W3C//DTD SVG 1.1//EN'  'http://www.w3.org/Graphics/SVG/1.1/DTD/svg11.dtd'><svg enable-background="new 0 0 24 24" height="24px" id="Layer_1" version="1.1" viewBox="0 0 24 24" width="24px" xml:space="preserve" xmlns="http://www.w3.org/2000/svg" xmlns:xlink="http://www.w3.org/1999/xlink"><path d="M12,0C5.4,0,0,5.4,0,12s5.4,12,12,12s12-5.4,12-12S18.6,0,12,0z M11.9,2c-0.1,0.9-0.3,1.8-0.6,2.6l-0.2-0.2  c-0.2-0.2-0.5-0.2-0.7,0c-0.2,0.2-0.2,0.5,0,0.7L11,5.6c-0.4,0.9-1,1.8-1.7,2.6L8.4,7.3c-0.2-0.2-0.5-0.2-0.7,0  C7.5,7.5,7.5,7.8,7.7,8l0.9,0.9C7.9,9.6,7,10.2,6.1,10.7l-0.6-0.6c-0.2-0.2-0.5-0.2-0.7,0c-0.2,0.2-0.2,0.5,0,0.7l0.3,0.3  c-1,0.4-2.1,0.7-3.2,0.8C2,6.5,6.5,2,11.9,2z M11.1,22c-4.8-0.4-8.6-4.2-9-9c1.4-0.1,2.7-0.5,3.9-1l1,1c0.2,0.2,0.5,0.2,0.7,0  c0.2-0.2,0.2-0.5,0-0.7l-0.8-0.8c0.9-0.5,1.7-1.1,2.4-1.8l0.5,0.5c0.2,0.2,0.5,0.2,0.7,0c0.2-0.2,0.2-0.5,0-0.7L10,8.9  c0.7-0.8,1.3-1.6,1.7-2.6l0.9,0.9c0.2,0.2,0.5,0.2,0.7,0c0.2-0.2,0.2-0.5,0-0.7l-1.2-1.2c0.4-1,0.7-2.2,0.8-3.3c4.8,0.4,8.6,4.2,9,9  c-1.2,0.1-2.3,0.4-3.3,0.8l-1.4-1.4c-0.2-0.2-0.5-0.2-0.7,0c-0.2,0.2-0.2,0.5,0,0.7l1.1,1.1c-0.9,0.5-1.8,1-2.6,1.7l-0.7-0.7  c-0.2-0.2-0.5-0.2-0.7,0c-0.2,0.2-0.2,0.5,0,0.7l0.7,0.7c-0.7,0.7-1.3,1.6-1.8,2.4l-1-1c-0.2-0.2-0.5-0.2-0.7,0s-0.2,0.5,0,0.7  l1.2,1.2C11.5,19.3,11.2,20.6,11.1,22z M12.1,22c0.1-1.1,0.4-2.2,0.8-3.2L13,19c0.2,0.2,0.5,0.2,0.7,0c0.2-0.2,0.2-0.5,0-0.7  l-0.4-0.4c0.5-0.9,1.1-1.7,1.8-2.5l0.8,0.8c0.2,0.2,0.5,0.2,0.7,0c0.2-0.2,0.2-0.5,0-0.7l-0.7-0.7c0.8-0.7,1.6-1.2,2.6-1.7l0.3,0.3  c0.2,0.2,0.5,0.2,0.7,0c0.2-0.2,0.2-0.5,0-0.7c0.8-0.3,1.7-0.5,2.6-0.6C22,17.5,17.5,22,12.1,22z"/></svg>