<?xml version="1.0" ?><!DOCTYPE svg  PUBLIC '-//W3C//DTD SVG 1.1//EN'  'http://www.w3.org/Graphics/SVG/1.1/DTD/svg11.dtd'><svg enable-background="new 0 0 24 24" height="24px" id="Layer_1" version="1.1" viewBox="0 0 24 24" width="24px" xml:space="preserve" xmlns="http://www.w3.org/2000/svg" xmlns:xlink="http://www.w3.org/1999/xlink"><path d="M12,0C5.4,0,0,5.4,0,12s5.4,12,12,12s12-5.4,12-12S18.6,0,12,0z M21.5,9L17,10.5l-4.9-4l0-4.4C16.5,2,20.3,4.9,21.5,9z   M14.7,16H9.3l-1.7-4.8L12,7.6l4.4,3.7L14.7,16z M11.1,2l0,5.1L7,10.4l0,0L2.5,8.9C3.7,5.2,7,2.4,11.1,2z M2,12  c0-0.7,0.1-1.4,0.2-2.1l4.4,1.4l1.9,5.5l-2.4,3.3C3.6,18.3,2,15.3,2,12z M6.9,20.6L9.6,17h5.9l0-0.1l2.3,3.2  C16.2,21.3,14.2,22,12,22C10.2,22,8.4,21.5,6.9,20.6z M18.6,19.5l-2.7-3.7l1.5-4.4l4.4-1.4c0.1,0.7,0.2,1.4,0.2,2.1  C22,15,20.7,17.7,18.6,19.5z"/></svg>