<?xml version="1.0" ?><!DOCTYPE svg  PUBLIC '-//W3C//DTD SVG 1.1//EN'  'http://www.w3.org/Graphics/SVG/1.1/DTD/svg11.dtd'><svg enable-background="new 0 0 24 24" height="24px" id="Layer_1" version="1.1" viewBox="0 0 24 24" width="24px" xml:space="preserve" xmlns="http://www.w3.org/2000/svg" xmlns:xlink="http://www.w3.org/1999/xlink"><path d="M12,0C5.4,0,0,5.4,0,12s5.4,12,12,12s12-5.4,12-12S18.6,0,12,0z M11.1,22c-2.2-0.2-4.2-1.1-5.8-2.5l6.7-6.7l2.2,2.2  C12.4,16.8,11.3,19.2,11.1,22z M14.9,15.6l3.8,3.8C16.9,21,14.6,22,12.1,22C12.3,19.5,13.3,17.3,14.9,15.6z M12.7,12l6.7-6.7  c1.4,1.6,2.3,3.5,2.5,5.8c-2.7,0.2-5.2,1.4-7.1,3.1L12.7,12z M5.3,4.6C7.1,3,9.4,2,11.9,2c-0.2,2.5-1.2,4.7-2.8,6.4L5.3,4.6z   M12.9,2c2.2,0.2,4.2,1.1,5.8,2.5L12,11.3L9.8,9.1C11.6,7.2,12.7,4.8,12.9,2z M4.6,5.3l3.8,3.8C6.7,10.7,4.5,11.7,2,12  C2,9.4,3,7.1,4.6,5.3z M2,12.9c2.7-0.2,5.2-1.4,7.1-3.1l2.2,2.2l-6.7,6.7C3.2,17.1,2.3,15.2,2,12.9z M19.4,18.7l-3.8-3.8  c1.7-1.6,3.9-2.6,6.4-2.8C22,14.6,21,16.9,19.4,18.7z"/></svg>